<mxfile host="app.diagrams.net" modified="2023-06-05T23:34:40.029Z" agent="Mozilla/5.0 (Windows NT 10.0; Win64; x64) AppleWebKit/537.36 (KHTML, like Gecko) Chrome/110.0.0.0 YaBrowser/23.3.4.605 Yowser/2.5 Safari/537.36" etag="oQZ7Bgx8e5FhDFaodSgz" version="21.3.7" type="github">
  <diagram name="Страница 1" id="AiWhCyUTDeXTJC79Gl5l">
    <mxGraphModel dx="1434" dy="767" grid="1" gridSize="10" guides="1" tooltips="1" connect="1" arrows="1" fold="1" page="1" pageScale="1" pageWidth="827" pageHeight="1169" math="0" shadow="0">
      <root>
        <mxCell id="0" />
        <mxCell id="1" parent="0" />
        <mxCell id="oFRL8BiDThFKa5AM-uTP-10" value="" style="rounded=0;whiteSpace=wrap;html=1;" vertex="1" parent="1">
          <mxGeometry x="70" y="80" width="630" height="430" as="geometry" />
        </mxCell>
        <mxCell id="oFRL8BiDThFKa5AM-uTP-2" value="Реестр JNDI" style="rounded=1;whiteSpace=wrap;html=1;" vertex="1" parent="1">
          <mxGeometry x="280" y="130" width="120" height="60" as="geometry" />
        </mxCell>
        <mxCell id="oFRL8BiDThFKa5AM-uTP-3" value="Поиск" style="ellipse;whiteSpace=wrap;html=1;" vertex="1" parent="1">
          <mxGeometry x="80" y="210" width="120" height="50" as="geometry" />
        </mxCell>
        <mxCell id="oFRL8BiDThFKa5AM-uTP-4" value="" style="endArrow=classic;html=1;rounded=0;exitX=0.5;exitY=0;exitDx=0;exitDy=0;entryX=0;entryY=0.5;entryDx=0;entryDy=0;" edge="1" parent="1" source="oFRL8BiDThFKa5AM-uTP-3" target="oFRL8BiDThFKa5AM-uTP-2">
          <mxGeometry width="50" height="50" relative="1" as="geometry">
            <mxPoint x="390" y="420" as="sourcePoint" />
            <mxPoint x="440" y="370" as="targetPoint" />
            <Array as="points">
              <mxPoint x="140" y="160" />
            </Array>
          </mxGeometry>
        </mxCell>
        <mxCell id="oFRL8BiDThFKa5AM-uTP-5" value="Зависимый объект" style="ellipse;whiteSpace=wrap;html=1;" vertex="1" parent="1">
          <mxGeometry x="85" y="340" width="110" height="50" as="geometry" />
        </mxCell>
        <mxCell id="oFRL8BiDThFKa5AM-uTP-6" value="" style="endArrow=classic;html=1;rounded=0;exitX=0.5;exitY=0;exitDx=0;exitDy=0;entryX=0.5;entryY=1;entryDx=0;entryDy=0;" edge="1" parent="1" source="oFRL8BiDThFKa5AM-uTP-5" target="oFRL8BiDThFKa5AM-uTP-3">
          <mxGeometry width="50" height="50" relative="1" as="geometry">
            <mxPoint x="390" y="420" as="sourcePoint" />
            <mxPoint x="440" y="370" as="targetPoint" />
          </mxGeometry>
        </mxCell>
        <mxCell id="oFRL8BiDThFKa5AM-uTP-7" value="Контейнер" style="rounded=1;whiteSpace=wrap;html=1;" vertex="1" parent="1">
          <mxGeometry x="530" y="140" width="90" height="40" as="geometry" />
        </mxCell>
        <mxCell id="oFRL8BiDThFKa5AM-uTP-8" value="" style="endArrow=classic;html=1;rounded=0;exitX=0;exitY=0.5;exitDx=0;exitDy=0;entryX=1;entryY=0.5;entryDx=0;entryDy=0;" edge="1" parent="1" source="oFRL8BiDThFKa5AM-uTP-7" target="oFRL8BiDThFKa5AM-uTP-2">
          <mxGeometry width="50" height="50" relative="1" as="geometry">
            <mxPoint x="390" y="420" as="sourcePoint" />
            <mxPoint x="440" y="370" as="targetPoint" />
          </mxGeometry>
        </mxCell>
        <mxCell id="oFRL8BiDThFKa5AM-uTP-9" value="Извлечение зависимостей (DI)&lt;br&gt;через поиск в реестре JNDI" style="text;html=1;align=center;verticalAlign=middle;resizable=0;points=[];autosize=1;strokeColor=none;fillColor=none;" vertex="1" parent="1">
          <mxGeometry x="245" y="440" width="190" height="40" as="geometry" />
        </mxCell>
      </root>
    </mxGraphModel>
  </diagram>
</mxfile>
